<svg width="24" height="24" viewBox="0 0 24 24" fill="none" xmlns="http://www.w3.org/2000/svg">
<g id="IC - Flag" clip-path="url(#clip0_22_5698)">
<path id="Vector" d="M21.3333 3.33331H2.66667C1.95942 3.33331 1.28115 3.61426 0.781049 4.11436C0.280952 4.61446 0 5.29274 0 5.99998L0 18C0 18.7072 0.280952 19.3855 0.781049 19.8856C1.28115 20.3857 1.95942 20.6666 2.66667 20.6666H21.3333C22.0406 20.6666 22.7189 20.3857 23.219 19.8856C23.719 19.3855 24 18.7072 24 18V5.99998C24 5.29274 23.719 4.61446 23.219 4.11436C22.7189 3.61426 22.0406 3.33331 21.3333 3.33331Z" fill="#FB3737"/>
<path id="Vector_2" d="M13.1687 10.6913L12 7.09467L10.8313 10.6913H7.05L10.1093 12.9133L8.94067 16.51L12 14.2873L15.0593 16.51L13.8907 12.9133L16.95 10.6913H13.1687Z" fill="#FFFF00"/>
</g>
<defs>
<clipPath id="clip0_22_5698">
<rect width="24" height="24" fill="white"/>
</clipPath>
</defs>
</svg>
