<svg width="24" height="25" viewBox="0 0 24 25" fill="none" xmlns="http://www.w3.org/2000/svg">
<g id="SVGRepo_iconCarrier">
<g id="Group">
<path id="Vector" d="M12 0.5C5.37188 0.5 0 5.87188 0 12.5C0 19.1281 5.37188 24.5 12 24.5C18.6281 24.5 24 19.1281 24 12.5C24 5.87188 18.6281 0.5 12 0.5ZM19.4906 19.9859C18.5156 20.9609 17.3859 21.725 16.125 22.2547C14.8219 22.8078 13.4344 23.0844 12 23.0844C10.5703 23.0844 9.18281 22.8031 7.875 22.2547C6.61406 21.7203 5.47969 20.9563 4.50937 19.9859C3.53437 19.0109 2.77031 17.8813 2.24063 16.6203C1.6875 15.3172 1.40625 13.9297 1.40625 12.5C1.40625 11.0703 1.6875 9.68281 2.23594 8.375C2.77031 7.11406 3.53437 5.97969 4.50469 5.00937C5.48438 4.03437 6.61406 3.27031 7.875 2.73594C9.18281 2.1875 10.5703 1.90625 12 1.90625C13.4297 1.90625 14.8172 2.1875 16.125 2.73594C17.3859 3.27031 18.5203 4.03438 19.4906 5.00469C20.4656 5.97969 21.2297 7.10937 21.7594 8.37031C22.3125 9.67344 22.5891 11.0609 22.5891 12.4953C22.5891 13.925 22.3078 15.3125 21.7594 16.6203C21.225 17.8813 20.4609 19.0156 19.4906 19.9859Z" fill="white"/>
<path id="Vector_2" d="M15.9328 8.29062H8.06719C8.06719 8.29062 6 8.29062 6 10.3578V14.6469C6 14.6469 6 16.7141 8.06719 16.7141H15.9328C15.9328 16.7141 18 16.7141 18 14.6469V10.3578C18 10.3578 18 8.29062 15.9328 8.29062ZM10.4016 14.8109V10.1937L14.3297 12.5047L10.4016 14.8109Z" fill="white"/>
</g>
</g>
</svg>
