<svg width="20" height="21" viewBox="0 0 20 21" fill="none" xmlns="http://www.w3.org/2000/svg">
<g id="SVGRepo_iconCarrier">
<path id="Vector" d="M0.749982 5V4.25C0.647275 4.24999 0.545662 4.27108 0.45144 4.31196C0.357218 4.35284 0.272396 4.41263 0.202231 4.48764C0.132067 4.56264 0.0780554 4.65126 0.0435449 4.74799C0.0090344 4.84473 -0.00523958 4.94752 0.00160755 5.05L0.749982 5ZM19.25 5L19.9984 5.05C20.0052 4.94752 19.9909 4.84473 19.9564 4.74799C19.9219 4.65126 19.8679 4.56264 19.7977 4.48764C19.7276 4.41263 19.6427 4.35284 19.5485 4.31196C19.4543 4.27108 19.3527 4.24999 19.25 4.25V5ZM2.37386 18.0831L1.49836 4.95013L0.00160755 5.04987L0.877232 18.1829L2.37386 18.0831ZM19.1227 18.1829L19.9984 5.04987L18.5016 4.95013L17.6261 18.0831L19.1227 18.1829ZM17.6261 18.0831C17.605 18.3996 17.4644 18.6961 17.2329 18.9128C17.0013 19.1295 16.696 19.25 16.3789 19.25V20.75C17.8266 20.75 19.0265 19.6275 19.1227 18.1829L17.6261 18.0831ZM0.877232 18.1829C0.973482 19.6275 2.17336 20.75 3.62098 20.75V19.25C3.30387 19.25 2.99862 19.1294 2.76706 18.9128C2.5355 18.6961 2.39495 18.3995 2.37386 18.0831L0.877232 18.1829ZM7.24998 4.5C7.24998 2.98125 8.48123 1.75 9.99998 1.75V0.25C7.65273 0.25 5.74998 2.15275 5.74998 4.5H7.24998ZM9.99998 1.75C11.5187 1.75 12.75 2.98125 12.75 4.5H14.25C14.25 2.15275 12.3472 0.25 9.99998 0.25V1.75ZM0.749982 5.75H19.25V4.25H0.749982V5.75ZM3.62111 20.75H16.3787V19.25H3.62111V20.75Z" fill="white"/>
<path id="Vector_2" d="M12.25 9H9C8.0335 9 7.25 9.7835 7.25 10.75C7.25 11.7165 8.0335 12.5 9 12.5H9.5M9.25 12.5H11C11.9665 12.5 12.75 13.2835 12.75 14.25C12.75 15.2165 11.9665 16 11 16H7.75" stroke="white" stroke-width="1.5" stroke-linecap="round"/>
</g>
</svg>
