<svg width="24" height="25" viewBox="0 0 24 25" fill="none" xmlns="http://www.w3.org/2000/svg">
<g id="SVGRepo_iconCarrier">
<g id="Group">
<path id="Vector" d="M12 0.5C5.37188 0.5 0 5.87188 0 12.5C0 19.1281 5.37188 24.5 12 24.5C18.6281 24.5 24 19.1281 24 12.5C24 5.87188 18.6281 0.5 12 0.5ZM19.4906 19.9859C18.5156 20.9609 17.3859 21.725 16.125 22.2547C14.8219 22.8078 13.4344 23.0844 12 23.0844C10.5703 23.0844 9.18281 22.8031 7.875 22.2547C6.61406 21.7203 5.47969 20.9563 4.50937 19.9859C3.53437 19.0109 2.77031 17.8813 2.24063 16.6203C1.6875 15.3172 1.40625 13.9297 1.40625 12.5C1.40625 11.0703 1.6875 9.68281 2.23594 8.375C2.77031 7.11406 3.53437 5.97969 4.50469 5.00937C5.48438 4.03437 6.61406 3.27031 7.875 2.73594C9.18281 2.1875 10.5703 1.90625 12 1.90625C13.4297 1.90625 14.8172 2.1875 16.125 2.73594C17.3859 3.27031 18.5203 4.03438 19.4906 5.00469C20.4656 5.97969 21.2297 7.10937 21.7594 8.37031C22.3125 9.67344 22.5891 11.0609 22.5891 12.4953C22.5891 13.925 22.3078 15.3125 21.7594 16.6203C21.225 17.8813 20.4609 19.0156 19.4906 19.9859Z" fill="white"/>
<path id="Vector_2" d="M15.6844 6.5H8.32501C7.04532 6.5 6.0047 7.54063 6.0047 8.82031V11.2719V16.1844C6.0047 17.4641 7.04532 18.5047 8.32501 18.5047H15.6844C16.9641 18.5047 18.0047 17.4641 18.0047 16.1844V11.2672V8.81562C18 7.54062 16.9594 6.5 15.6844 6.5ZM16.35 7.88281H16.6172V8.14531V9.91719L14.5875 9.92188L14.5828 7.8875L16.35 7.88281ZM10.2891 11.2672C10.6734 10.7375 11.2969 10.3859 12 10.3859C12.7031 10.3859 13.3266 10.7328 13.7109 11.2672C13.9641 11.6141 14.1094 12.0406 14.1094 12.5C14.1094 13.6625 13.1625 14.6141 11.9953 14.6141C10.8281 14.6141 9.89064 13.6625 9.89064 12.5C9.89064 12.0406 10.0406 11.6141 10.2891 11.2672ZM16.8328 16.1797C16.8328 16.8125 16.3172 17.3281 15.6844 17.3281H8.32501C7.6922 17.3281 7.17657 16.8125 7.17657 16.1797V11.2672H8.9672C8.81251 11.6469 8.72345 12.0641 8.72345 12.5C8.72345 14.3094 10.1953 15.7812 12.0047 15.7812C13.8141 15.7812 15.2859 14.3094 15.2859 12.5C15.2859 12.0641 15.1969 11.6469 15.0422 11.2672H16.8328V16.1797Z" fill="white"/>
</g>
</g>
</svg>
